{
  "accessors": [
    {
      "bufferView": 2,
      "componentType": 5126,
      "count": 65532,
      "max": [
        251.40757751464844,
        -336.119873046875,
        -34.6400260925293
      ],
      "min": [
        -16.172359466552734,
        -522.419189453125,
        -151.58541870117188
      ],
      "type": "VEC3"
    },
    {
      "bufferView": 2,
      "byteOffset": 786384,
      "componentType": 5126,
      "count": 65532,
      "max": [
        1.0,
        0.9853124022483826,
        0.9999979138374329
      ],
      "min": [
        -0.9981465339660645,
        -0.7935564517974854,
        -0.9999973773956299
      ],
      "type": "VEC3"
    },
    {
      "bufferView": 1,
      "componentType": 5126,
      "count": 65532,
      "max": [
        0.9510890245437622,
        0.991549015045166
      ],
      "min": [
        0.00710600009188056,
        0.004687999840825796
      ],
      "type": "VEC2"
    },
    {
      "bufferView": 0,
      "componentType": 5125,
      "count": 366420,
      "type": "SCALAR"
    },
    {
      "bufferView": 2,
      "byteOffset": 1572768,
      "componentType": 5126,
      "count": 65532,
      "max": [
        182.9239044189453,
        -119.72132110595703,
        -57.00095748901367
      ],
      "min": [
        -260.56494140625,
        -413.8668212890625,
        -212.8485565185547
      ],
      "type": "VEC3"
    },
    {
      "bufferView": 2,
      "byteOffset": 2359152,
      "componentType": 5126,
      "count": 65532,
      "max": [
        0.9894785284996033,
        0.9839036464691162,
        0.9999910593032837
      ],
      "min": [
        -0.9656440615653992,
        -0.9013569355010986,
        -0.9999913573265076
      ],
      "type": "VEC3"
    },
    {
      "bufferView": 1,
      "byteOffset": 524256,
      "componentType": 5126,
      "count": 65532,
      "max": [
        0.998242974281311,
        0.9683219790458679
      ],
      "min": [
        0.0018489999929443002,
        0.005537000019103289
      ],
      "type": "VEC2"
    },
    {
      "bufferView": 0,
      "byteOffset": 1465680,
      "componentType": 5125,
      "count": 347706,
      "type": "SCALAR"
    },
    {
      "bufferView": 2,
      "byteOffset": 3145536,
      "componentType": 5126,
      "count": 65532,
      "max": [
        93.32117462158203,
        -86.131591796875,
        -68.02164459228516
      ],
      "min": [
        -263.91680908203125,
        -367.0345153808594,
        -237.1979522705078
      ],
      "type": "VEC3"
    },
    {
      "bufferView": 2,
      "byteOffset": 3931920,
      "componentType": 5126,
      "count": 65532,
      "max": [
        0.9999963641166687,
        0.9999762177467346,
        0.9999698996543884
      ],
      "min": [
        -0.9995095729827881,
        -0.9971100687980652,
        -0.9999992847442627
      ],
      "type": "VEC3"
    },
    {
      "bufferView": 1,
      "byteOffset": 1048512,
      "componentType": 5126,
      "count": 65532,
      "max": [
        0.9981390237808228,
        0.9972289800643921
      ],
      "min": [
        0.0019680000841617584,
        0.0016250000335276127
      ],
      "type": "VEC2"
    },
    {
      "bufferView": 0,
      "byteOffset": 2856504,
      "componentType": 5125,
      "count": 343038,
      "type": "SCALAR"
    },
    {
      "bufferView": 2,
      "byteOffset": 4718304,
      "componentType": 5126,
      "count": 23449,
      "max": [
        132.43280029296875,
        -315.6473693847656,
        -61.99470901489258
      ],
      "min": [
        -81.51341247558594,
        -384.793212890625,
        -176.58779907226563
      ],
      "type": "VEC3"
    },
    {
      "bufferView": 2,
      "byteOffset": 4999692,
      "componentType": 5126,
      "count": 23449,
      "max": [
        0.6991380453109741,
        0.9117085933685303,
        0.999581515789032
      ],
      "min": [
        -0.9111819863319397,
        -0.9350883960723877,
        -0.9928813576698303
      ],
      "type": "VEC3"
    },
    {
      "bufferView": 1,
      "byteOffset": 1572768,
      "componentType": 5126,
      "count": 23449,
      "max": [
        0.9434580206871033,
        0.9982119798660278
      ],
      "min": [
        0.00202700006775558,
        0.005367999896407127
      ],
      "type": "VEC2"
    },
    {
      "bufferView": 0,
      "byteOffset": 4228656,
      "componentType": 5125,
      "count": 105411,
      "type": "SCALAR"
    }
  ],
  "asset": {
    "extras": {
      "author": "SHINING 3D (https://sketchfab.com/einscan)",
      "license": "CC-BY-NC-4.0 (http://creativecommons.org/licenses/by-nc/4.0/)",
      "source": "https://sketchfab.com/3d-models/einscan-h-arm-f8bb2f73c88643f696d1c8ca3e7db7c4",
      "title": "[EinScan H] Arm"
    },
    "generator": "Sketchfab-15.34.0",
    "version": "2.0"
  },
  "bufferViews": [
    {
      "buffer": 0,
      "byteLength": 4650300,
      "name": "floatBufferViews",
      "target": 34963
    },
    {
      "buffer": 0,
      "byteLength": 1760360,
      "byteOffset": 4650300,
      "byteStride": 8,
      "name": "floatBufferViews",
      "target": 34962
    },
    {
      "buffer": 0,
      "byteLength": 5281080,
      "byteOffset": 6410660,
      "byteStride": 12,
      "name": "floatBufferViews",
      "target": 34962
    }
  ],
  "buffers": [
    {
      "byteLength": 11691740,
      "uri": "scene.bin"
    }
  ],
  "extensionsUsed": [
    "KHR_materials_unlit"
  ],
  "images": [
    {
      "uri": "textures/texture_baseColor.jpeg"
    }
  ],
  "materials": [
    {
      "doubleSided": true,
      "extensions": {
        "KHR_materials_unlit": {}
      },
      "name": "texture",
      "pbrMetallicRoughness": {
        "baseColorTexture": {
          "index": 0
        },
        "metallicFactor": 0.0
      }
    }
  ],
  "meshes": [
    {
      "name": "Object_0",
      "primitives": [
        {
          "attributes": {
            "NORMAL": 1,
            "POSITION": 0,
            "TEXCOORD_0": 2
          },
          "indices": 3,
          "material": 0,
          "mode": 4
        }
      ]
    },
    {
      "name": "Object_1",
      "primitives": [
        {
          "attributes": {
            "NORMAL": 5,
            "POSITION": 4,
            "TEXCOORD_0": 6
          },
          "indices": 7,
          "material": 0,
          "mode": 4
        }
      ]
    },
    {
      "name": "Object_2",
      "primitives": [
        {
          "attributes": {
            "NORMAL": 9,
            "POSITION": 8,
            "TEXCOORD_0": 10
          },
          "indices": 11,
          "material": 0,
          "mode": 4
        }
      ]
    },
    {
      "name": "Object_3",
      "primitives": [
        {
          "attributes": {
            "NORMAL": 13,
            "POSITION": 12,
            "TEXCOORD_0": 14
          },
          "indices": 15,
          "material": 0,
          "mode": 4
        }
      ]
    }
  ],
  "nodes": [
    {
      "children": [
        1
      ],
      "matrix": [
        0.5689445734024048,
        0.8069736361503601,
        -0.1584158539772032,
        0.0,
        -0.38343489170074463,
        0.4307157993316649,
        0.8169832229614259,
        0.0,
        0.7275161743164063,
        -0.4040760099887849,
        0.5544752478599547,
        0.0,
        0.0,
        0.0,
        0.0,
        1.0
      ],
      "name": "Sketchfab_model"
    },
    {
      "children": [
        2,
        3,
        4,
        5
      ],
      "name": "2.obj.cleaner.materialmerger.gles"
    },
    {
      "mesh": 0,
      "name": "Object_2"
    },
    {
      "mesh": 1,
      "name": "Object_3"
    },
    {
      "mesh": 2,
      "name": "Object_4"
    },
    {
      "mesh": 3,
      "name": "Object_5"
    }
  ],
  "samplers": [
    {
      "magFilter": 9729,
      "minFilter": 9987,
      "wrapS": 10497,
      "wrapT": 10497
    }
  ],
  "scene": 0,
  "scenes": [
    {
      "name": "Sketchfab_Scene",
      "nodes": [
        0
      ]
    }
  ],
  "textures": [
    {
      "sampler": 0,
      "source": 0
    }
  ]
}
