{
  "accessors": [
    {
      "bufferView": 1,
      "componentType": 5126,
      "count": 46338,
      "max": [
        -7.410805702209473,
        8.929615020751953,
        152.0776824951172
      ],
      "min": [
        -43.43149948120117,
        -15.14566707611084,
        95.41954803466797
      ],
      "type": "VEC3"
    },
    {
      "bufferView": 1,
      "byteOffset": 556056,
      "componentType": 5126,
      "count": 46338,
      "max": [
        1.0,
        0.9999682307243347,
        1.0
      ],
      "min": [
        -1.0,
        -0.9999848008155823,
        -1.0
      ],
      "type": "VEC3"
    },
    {
      "bufferView": 0,
      "componentType": 5125,
      "count": 273564,
      "type": "SCALAR"
    }
  ],
  "asset": {
    "extras": {
      "author": "seaverly (https://sketchfab.com/seaverly)",
      "license": "CC-BY-4.0 (http://creativecommons.org/licenses/by/4.0/)",
      "source": "https://sketchfab.com/3d-models/arm-01-cc5116792778427298b58d533c7690c5",
      "title": "Arm 01"
    },
    "generator": "Sketchfab-12.64.0",
    "version": "2.0"
  },
  "bufferViews": [
    {
      "buffer": 0,
      "byteLength": 1094256,
      "name": "floatBufferViews",
      "target": 34963
    },
    {
      "buffer": 0,
      "byteLength": 1112112,
      "byteOffset": 1094256,
      "byteStride": 12,
      "name": "floatBufferViews",
      "target": 34962
    }
  ],
  "buffers": [
    {
      "byteLength": 2206368,
      "uri": "scene.bin"
    }
  ],
  "materials": [
    {
      "doubleSided": true,
      "name": "Scene_-_Root",
      "pbrMetallicRoughness": {
        "metallicFactor": 0.0,
        "roughnessFactor": 0.6
      }
    }
  ],
  "meshes": [
    {
      "name": "Object_0",
      "primitives": [
        {
          "attributes": {
            "NORMAL": 1,
            "POSITION": 0
          },
          "indices": 2,
          "material": 0,
          "mode": 4
        }
      ]
    }
  ],
  "nodes": [
    {
      "children": [
        1
      ],
      "matrix": [
        1.0,
        0.0,
        0.0,
        0.0,
        0.0,
        2.220446049250313e-16,
        -1.0,
        0.0,
        0.0,
        1.0,
        2.220446049250313e-16,
        0.0,
        0.0,
        0.0,
        0.0,
        1.0
      ],
      "name": "Sketchfab_model"
    },
    {
      "children": [
        2
      ],
      "name": "arm_03.OBJ.cleaner.materialmerger.gles"
    },
    {
      "mesh": 0,
      "name": "Object_2"
    }
  ],
  "scene": 0,
  "scenes": [
    {
      "name": "Sketchfab_Scene",
      "nodes": [
        0
      ]
    }
  ]
}
